HIERARCHY
ROOT Hip
{
    OFFSET 0.0 0.0 0.0
    CHANNELS 6 Xposition Yposition Zposition Zrotation Xrotation Yrotation
    JOINT RightHip
    {
        OFFSET -6.702904723477252 0.0 0.0
        CHANNELS 3 Zrotation Xrotation Yrotation
        JOINT RightKnee
        {
            OFFSET 0.0 0.0 -23.135301391752574
            CHANNELS 3 Zrotation Xrotation Yrotation
            JOINT RightAnkle
            {
                OFFSET 0.0 0.0 -29.366199440065486
                CHANNELS 3 Zrotation Xrotation Yrotation
                End Site
                {
                    OFFSET 0.0 -11.746479776026193 0.0
                }
            }
        }
    }
    JOINT LeftHip
    {
        OFFSET 6.702904723477252 0.0 0.0
        CHANNELS 3 Zrotation Xrotation Yrotation
        JOINT LeftKnee
        {
            OFFSET 0.0 0.0 -23.135301391752574
            CHANNELS 3 Zrotation Xrotation Yrotation
            JOINT LeftAnkle
            {
                OFFSET 0.0 0.0 -29.366199440065486
                CHANNELS 3 Zrotation Xrotation Yrotation
                End Site
                {
                    OFFSET 0.0 -11.746479776026193 0.0
                }
            }
        }
    }
    JOINT Spine
    {
        OFFSET 0.0 0.0 19.309447244747407
        CHANNELS 3 Zrotation Xrotation Yrotation
        JOINT Thorax
        {
            OFFSET 0.0 0.0 22.139154035956384
            CHANNELS 3 Zrotation Xrotation Yrotation
            JOINT Neck
            {
                OFFSET 0.0 0.0 2.8101344150050207
                CHANNELS 3 Zrotation Xrotation Yrotation
                JOINT Head
                {
                    OFFSET 0.0 0.0 8.344830796704294
                    CHANNELS 3 Zrotation Xrotation Yrotation
                    End Site
                    {
                        OFFSET -3.337932318681718 0.0 0.0
                    }
                }
            }
            JOINT LeftShoulder
            {
                OFFSET 12.158751895224091 0.0 0.0
                CHANNELS 3 Zrotation Xrotation Yrotation
                JOINT LeftElbow
                {
                    OFFSET 22.20874665359871 0.0 0.0
                    CHANNELS 3 Zrotation Xrotation Yrotation
                    JOINT LeftWrist
                    {
                        OFFSET 14.329589936787444 0.0 0.0
                        CHANNELS 3 Zrotation Xrotation Yrotation
                        End Site
                        {
                            OFFSET 5.731835974714977 0.0 0.0
                        }
                    }
                }
            }
            JOINT RightShoulder
            {
                OFFSET -12.158751895224091 0.0 0.0
                CHANNELS 3 Zrotation Xrotation Yrotation
                JOINT RightElbow
                {
                    OFFSET -22.20874665359871 0.0 0.0
                    CHANNELS 3 Zrotation Xrotation Yrotation
                    JOINT RightWrist
                    {
                        OFFSET -14.329589936787444 0.0 0.0
                        CHANNELS 3 Zrotation Xrotation Yrotation
                        End Site
                        {
                            OFFSET -5.731835974714977 0.0 0.0
                        }
                    }
                }
            }
            JOINT Nose
            {
                OFFSET 0.0 0.0 7.959572016232479
                CHANNELS 3 Zrotation Xrotation Yrotation
                End Site
                {
                    OFFSET -3.183828806492992 0.0 0.0
                }
            }
        }
    }
}
MOTION
Frames: 5
Frame Time: 0.03333333333333333
0.8626584765198037 44.55469222022265 6.869733724754941 -2.765509574431664 -0.6971512407207663 1.8037845517026898 -1.3291861858150158 -9.70667927792197 10.158353347296298 5.590663536451274 20.453143886313647 -14.214262009749563 0.0 -1.5902773407317584e-15 0.0 2.595652724149103 -8.269402000049991 -10.03453462945659 -6.24428263063196 19.755491905622765 14.958900713910417 0.0 0.0 -1.987846675914698e-16 -4.05926769001785e-16 5.15185095622482 1.7682887308703684e-16 -2.017320359966326 0.03868002369254086 -1.8362187577607807 -2.457970615828206 1.1037138411728094 0.1263902751318026 0.0 0.0 0.0 -76.7044927424885 53.05859721257664 1.539982217899979 2.8936704729886996e-15 1.3200754809982814e-15 -130.9556135758908 -2.782985346280577e-15 7.724336021587778e-32 -3.1805546814635168e-15 76.95899144437185 43.46565064098635 1.8198228864266721 1.4504576278404325e-14 1.4731436740492562e-14 136.12889943753814 7.951386703658792e-16 0.0 0.0 0.0 -3.8825130388958945e-19 0.0
0.860487546932098 44.462545261503294 6.889110642683511 -1.7807469197882206 -0.7038536740287843 1.999808945040371 -2.1117842529540183 -9.488292884613799 9.909339403762587 5.5512295290207145 20.202693959888784 -14.102791027902034 0.0 0.0 4.969616689786745e-17 1.5843657170729997 -8.427341925961159 -10.288203618091392 -6.182630219173772 19.623706329406517 15.560313471381045 0.0 0.0 9.93923337957349e-17 -3.303009896436953e-17 5.199136791101523 7.275001931945407e-16 -2.4086285102398906 0.02083477743478311 -1.9835442226858628 -2.171144117400302 1.1059079341709488 0.06410404105781944 0.0 0.0 0.0 -77.13293019098985 53.10298550814917 1.249240977043758 1.1325858290831144e-14 -1.7977761371051973e-15 -130.65871560832136 -7.951386703658792e-15 6.3611093629270335e-15 3.1805546814635176e-15 77.29862405951782 42.742036438632496 1.6264876754399966 4.049322108123328e-15 1.8918042432833923e-14 136.91215928646932 -7.95138670365879e-16 -2.2069531490250793e-32 3.180554681463516e-15 0.0 0.0 2.4848083448933725e-17
0.8605179086229524 44.46383398937805 6.888839645413407 -1.7131019014024382 -0.6501005005553369 1.6907213297681358 -1.55069416382458 -9.206976762236836 9.996861499519312 5.355079774446778 19.80439161017476 -13.956108965070692 -2.0649775253023965e-33 -1.5871713303006417e-15 -1.4908850069360235e-16 1.5871038341921737 -8.705059491909212 -10.759078294807988 -6.01167847842354 19.807996125296636 15.71036701598267 0.0 0.0 -2.4848083448933725e-16 1.0418890145660635e-18 5.106537004854204 -2.336468811937569e-17 -2.425300001253391 0.01240471150720782 -1.8982222146876122 -2.1393202565327676 1.0933430685401333 0.17161763836727476 0.0 0.0 0.0 -77.8576992986726 52.337635298574135 1.4777941282323341 2.290629931820289e-14 3.383140534948381e-15 -131.30611139069148 -7.951386703658792e-16 0.0 0.0 79.06548644461388 41.575996743752626 0.7536051994670412 3.107900118907706e-15 1.2438841914736686e-14 137.69317761372193 -1.5902773407317584e-15 0.0 0.0 7.951386703658792e-16 -7.943621677581001e-16 5.5119948033512116e-33
0.8603941263448535 44.458579944965564 6.889944480437685 -1.6791559124639406 -0.6146423754113587 1.5792714197224957 -1.5065602473996453 -9.245459817891374 10.06662210152686 5.299307308605084 19.898330047029603 -13.948333938139998 0.0 0.0 7.454425034680117e-17 1.5657386305137588 -8.719193206910376 -10.836274130857309 -5.852243544075817 19.81360398511797 15.600869617248081 1.987846675914698e-16 -8.620910738379216e-35 -4.969616689786745e-17 9.267920931088712e-18 5.047557230369751 -2.1026776058772146e-16 -2.3764056651591647 0.008794639327950984 -1.7978787867955308 -2.093113758941113 1.0880755754466673 0.1752765668688045 0.0 0.0 0.0 -77.90334865176654 52.077346323156796 1.8500374914387496 -5.214886524112609e-15 1.1604301265009478e-14 -131.6024092273314 -2.3854160110976376e-15 0.0 0.0 79.08349990974997 41.50400858553922 0.6926441773277078 9.729367118893445e-15 3.004609509409641e-15 137.00370516119426 -2.3854160110976376e-15 0.0 0.0 0.0 0.0 0.0
0.8590289493221328 44.400633841384106 6.90212954773652 -2.57438988698102 -0.6664920162537409 1.564445926440442 -0.6124675302934849 -9.266076508473464 10.162957446990736 5.341555090896369 19.922079616190096 -14.174423661435515 0.0 0.0 1.7393658414253607e-16 2.464593925918023 -8.722950890559463 -10.651477501978915 -5.795686115377025 19.857403856263264 15.164369304471691 0.0 0.0 -2.7332891793827095e-16 1.2076701903109657e-15 5.033126548309128 -3.1423455046478974e-16 -1.6324377817192475 0.014397092703690878 -1.6449719589985468 -2.163342994797029 1.0799939334097266 0.14006432715256317 0.0 0.0 0.0 -76.74016606043607 52.1598192714794 1.549523434484743 -1.3935947038015934e-14 7.660782087887783e-15 -131.33619839511027 1.1927080055488188e-15 0.0 0.0 78.95739074641246 41.26621199458676 0.3850215533225602 3.752966695571134e-15 -1.5453589972120432e-14 133.56070678746985 2.3854160110976376e-15 0.0 0.0 0.0 0.0 -2.4848083448933725e-17
